<svg xmlns="http://www.w3.org/2000/svg" width="128" height="128" version="1.0" viewBox="0 0 128 128" xml:space="preserve">
  <g transform="rotate(300 64 64)">
    <path fill="#1e00ff" fill-opacity="1" d="M64 0a8 8 0 018 8c0 4.42-8 25.5-8 25.5S56 12.42 56 8a8 8 0 018-8z"/>
    <path fill="#f9f8ff" fill-opacity=".03" d="M96 8.57a8 8 0 012.93 10.93C96.72 23.33 79.25 37.6 79.25 37.6s3.61-22.26 5.82-26.09A8 8 0 0196 8.57z"/>
    <path fill="#ebe8ff" fill-opacity=".09" d="M119.43 32a8 8 0 01-2.93 10.93c-3.83 2.2-26.09 5.82-26.09 5.82s14.26-17.47 18.09-19.68A8 8 0 01119.43 32z"/>
    <path fill="#d9d4ff" fill-opacity=".17" d="M128 64a8 8 0 01-8 8c-4.42 0-25.5-8-25.5-8s21.08-8 25.5-8a8 8 0 018 8z"/>
    <path fill="#c6beff" fill-opacity=".25" d="M119.43 96a8 8 0 01-10.93 2.93c-3.83-2.21-18.09-19.68-18.09-19.68s22.26 3.61 26.09 5.82A8 8 0 01119.43 96z"/>
    <path fill="#b0a6ff" fill-opacity=".35" d="M96 119.43a8 8 0 01-10.93-2.93c-2.2-3.83-5.82-26.09-5.82-26.09s17.47 14.26 19.68 18.09A8 8 0 0196 119.43z"/>
    <path fill="#9b8eff" fill-opacity=".44" d="M64 128a8 8 0 01-8-8c0-4.42 8-25.5 8-25.5s8 21.08 8 25.5a8 8 0 01-8 8z"/>
    <path fill="#8373ff" fill-opacity=".55" d="M32 119.43a8 8 0 01-2.93-10.93c2.21-3.83 19.68-18.09 19.68-18.09s-3.61 22.26-5.82 26.09A8 8 0 0132 119.43z"/>
    <path fill="#6d5aff" fill-opacity=".65" d="M8.57 96a8 8 0 012.93-10.93c3.83-2.2 26.09-5.82 26.09-5.82S23.33 96.72 19.5 98.93A8 8 0 018.57 96z"/>
    <path fill="#5741ff" fill-opacity=".75" d="M0 64a8 8 0 018-8c4.42 0 25.5 8 25.5 8S12.42 72 8 72a8 8 0 01-8-8z"/>
    <path fill="#432aff" fill-opacity=".84" d="M8.57 32a8 8 0 0110.93-2.93c3.83 2.21 18.09 19.68 18.09 19.68s-22.26-3.61-26.09-5.82A8 8 0 018.57 32z"/>
    <path fill="#3115ff" fill-opacity=".92" d="M32 8.57a8 8 0 0110.93 2.93c2.2 3.83 5.82 26.09 5.82 26.09S31.28 23.33 29.07 19.5A8 8 0 0132 8.57z"/>
    <animateTransform attributeName="transform" calcMode="discrete" dur="600ms" repeatCount="indefinite" type="rotate" values="0 64 64;30 64 64;60 64 64;90 64 64;120 64 64;150 64 64;180 64 64;210 64 64;240 64 64;270 64 64;300 64 64;330 64 64"/>
  </g>
</svg>
